{"title":"Charlie Chaplin Carnival(1938)MPEG-4[DaScubaDude]","uid":14878286,"size":999815356,"categoryP":"video","categoryS":"movies","magnet":"?xt=urn:btih:5d6049c55dc2cb5e1331ac9bfb5200255e6d351b&amp;dn=Charlie+Chaplin+Carnival%281938%29MPEG-4%5BDaScubaDude%5D&amp;tr=udp%3A%2F%2Ftracker.leechers-paradise.org%3A6969&amp;tr=udp%3A%2F%2Fzer0day.ch%3A1337&amp;tr=udp%3A%2F%2Fopen.demonii.com%3A1337&amp;tr=udp%3A%2F%2Ftracker.coppersurfer.tk%3A6969&amp;tr=udp%3A%2F%2Fexodus.desync.com%3A6969","seeders":0,"leechers":1,"uploader":"dascuba","files":1,"time":1465604557,"description":"Charlie Chaplin Carnival (1938)\r\n1h 40min\r\nFour Chaplin shorts from 1916: Behind the Screen, The Count, The Fireman, and The Vagabond, presented with music and sound effects.\r\nDirector: Charles Chaplin\r\nWriter: Charles Chaplin\r\nStars: Eric Campbell, Charles Chaplin, Edna Purviance |\r\n\r\nGeneral\r\nComplete name                            : Chaplin CarnivalOut_Title1.mp4\r\nFormat                                   : MPEG-4\r\nFormat profile                           : Base Media\r\nCodec ID                                 : isom (isom/iso2/avc1/mp41)\r\nFile size                                : 953 MiB\r\nDuration                                 : 1h 39mn\r\nOverall bit rate mode                    : Variable\r\nOverall bit rate                         : 1 338 Kbps\r\nMovie name                               : DVD\r\nGenre                                    : Comedy\r\nWriting application                      : Lavf54.6.100\r\n\r\nVideo\r\nID                                       : 1\r\nFormat                                   : AVC\r\nFormat/Info                              : Advanced Video Codec\r\nFormat profile                           :   \r\nFormat settings, CABAC                   : No\r\nFormat settings, ReFrames                : 6 frames\r\nFormat settings, GOP                     : N=1\r\nCodec ID                                 : avc1\r\nCodec ID/Info                            : Advanced Video Coding\r\nDuration                                 : 1h 39mn\r\nBit rate                                 : 1 203 Kbps\r\nWidth                                    : 720 pixels\r\nHeight                                   : 540 pixels\r\nDisplay aspect ratio                     : 4:3\r\nFrame rate mode                          : Constant\r\nFrame rate                               : 29.970 (30000/1001) fps\r\nColor space                              : YUV\r\nChroma subsampling                       : 4:2:0\r\nBit depth                                : 8 bits\r\nScan type                                : Progressive\r\nBits/(Pixel*Frame)                       : 0.103\r\nStream size                              : 857 MiB (90%)\r\n\r\nAudio\r\nID                                       : 2\r\nFormat                                   : AAC\r\nFormat/Info                              : Advanced Audio Codec\r\nFormat profile                           : LC\r\nCodec ID                                 : 40\r\nDuration                                 : 1h 39mn\r\nBit rate mode                            : Variable\r\nBit rate                                 : 128 Kbps\r\nMaximum bit rate                         : 139 Kbps\r\nChannel(s)                               : 2 channels\r\nChannel positions                        : Front: L R\r\nSampling rate                            : 44.1 KHz\r\nFrame rate                               : 43.066 fps (1024 spf)\r\nCompression mode                         : Lossy\r\nStream size                              : 91.2 MiB (10%)\r\nDefault                                  : Yes\r\nAlternate group                          : 1","torrent":{"xt":"urn:btih:5d6049c55dc2cb5e1331ac9bfb5200255e6d351b","amp;dn":"Charlie+Chaplin+Carnival%281938%29MPEG-4%5BDaScubaDude%5D","amp;tr":["udp%3A%2F%2Ftracker.leechers-paradise.org%3A6969","udp%3A%2F%2Fzer0day.ch%3A1337","udp%3A%2F%2Fopen.demonii.com%3A1337","udp%3A%2F%2Ftracker.coppersurfer.tk%3A6969","udp%3A%2F%2Fexodus.desync.com%3A6969"],"infoHash":"5d6049c55dc2cb5e1331ac9bfb5200255e6d351b","infoHashBuffer":{"type":"Buffer","data":[93,96,73,197,93,194,203,94,19,49,172,155,251,82,0,37,94,109,53,27]},"announce":[],"urlList":[]}}